# xmcd
#
# Track frame offsets:
#	150
#	14868
#	30425
#	47928
#	64501
#	83134
#
# Disc length: 1317 seconds
#
# Revision: 2
# Processed by: cddbd v1.5.1PL0 Copyright (c) Steve Scherf et al.
# Submitted via: audiograbber 1.83.01
#
DISCID=47052306
DTITLE=Classy Chassis Country - On Our Own
DYEAR=1900
DGENRE=Country
TTITLE0=You're In Love With Me
TTITLE1=Other Plans
TTITLE2=Glances Across the Room
TTITLE3=Over and Done
TTITLE4=She'd Be Eighteen Today
TTITLE5=You're in Love With A Memory
EXTD=
EXTT0=
EXTT1=
EXTT2=
EXTT3=
EXTT4=
EXTT5=
PLAYORDER=
